<mxfile host="app.diagrams.net" agent="Mozilla/5.0 (Windows NT 10.0; Win64; x64) AppleWebKit/537.36 (KHTML, like Gecko) Chrome/128.0.0.0 Safari/537.36 Edg/128.0.0.0" version="24.7.14">
  <diagram name="Page-1" id="Xi15WQIa8JXdxaw2FO5i">
    <mxGraphModel dx="1770" dy="1805" grid="1" gridSize="10" guides="1" tooltips="1" connect="1" arrows="1" fold="1" page="1" pageScale="1" pageWidth="827" pageHeight="1169" math="0" shadow="0">
      <root>
        <mxCell id="0" />
        <mxCell id="1" parent="0" />
        <mxCell id="wvjnYvqD2vjcJQ5lj3Jd-69" value="" style="rounded=0;whiteSpace=wrap;html=1;" vertex="1" parent="1">
          <mxGeometry x="-400" y="-100" width="350" height="970" as="geometry" />
        </mxCell>
        <mxCell id="wvjnYvqD2vjcJQ5lj3Jd-30" value="" style="whiteSpace=wrap;html=1;" vertex="1" parent="1">
          <mxGeometry x="55.5" y="-90" width="254.5" height="130" as="geometry" />
        </mxCell>
        <mxCell id="2" value="Ontvang het order" style="whiteSpace=wrap;strokeWidth=2;fontColor=default;" parent="1" vertex="1">
          <mxGeometry x="102.5" y="-49" width="162" height="49" as="geometry" />
        </mxCell>
        <mxCell id="3" value="Voorbereiden ingredienten" style="rounded=1;arcSize=40;strokeWidth=2;fontColor=default;" parent="1" vertex="1">
          <mxGeometry x="98" y="107" width="171" height="49" as="geometry" />
        </mxCell>
        <mxCell id="4" value="Bak de burger" style="rounded=1;arcSize=40;strokeWidth=2;fontColor=default;" parent="1" vertex="1">
          <mxGeometry x="8" y="306" width="107" height="49" as="geometry" />
        </mxCell>
        <mxCell id="5" value="Rooster de broodjes" style="rounded=1;arcSize=40;strokeWidth=2;fontColor=default;" parent="1" vertex="1">
          <mxGeometry x="9" y="405" width="131" height="49" as="geometry" />
        </mxCell>
        <mxCell id="6" value="Breng alles samen" style="rounded=1;arcSize=40;strokeWidth=2;fontColor=default;" parent="1" vertex="1">
          <mxGeometry x="41" y="603" width="150" height="49" as="geometry" />
        </mxCell>
        <mxCell id="wvjnYvqD2vjcJQ5lj3Jd-81" style="edgeStyle=orthogonalEdgeStyle;rounded=0;orthogonalLoop=1;jettySize=auto;html=1;entryX=1;entryY=0.5;entryDx=0;entryDy=0;" edge="1" parent="1" source="7" target="wvjnYvqD2vjcJQ5lj3Jd-80">
          <mxGeometry relative="1" as="geometry" />
        </mxCell>
        <mxCell id="wvjnYvqD2vjcJQ5lj3Jd-82" value="Registreer gebruik van verpakking" style="edgeLabel;html=1;align=center;verticalAlign=middle;resizable=0;points=[];" vertex="1" connectable="0" parent="wvjnYvqD2vjcJQ5lj3Jd-81">
          <mxGeometry x="0.3983" relative="1" as="geometry">
            <mxPoint x="37" y="-20" as="offset" />
          </mxGeometry>
        </mxCell>
        <mxCell id="7" value="Pak de burger in papier/doosje" style="rounded=1;arcSize=40;strokeWidth=2;fontColor=default;" parent="1" vertex="1">
          <mxGeometry x="24" y="703" width="184" height="49" as="geometry" />
        </mxCell>
        <mxCell id="wvjnYvqD2vjcJQ5lj3Jd-78" style="edgeStyle=orthogonalEdgeStyle;rounded=0;orthogonalLoop=1;jettySize=auto;html=1;entryX=1;entryY=0.5;entryDx=0;entryDy=0;" edge="1" parent="1" source="8" target="wvjnYvqD2vjcJQ5lj3Jd-77">
          <mxGeometry relative="1" as="geometry" />
        </mxCell>
        <mxCell id="wvjnYvqD2vjcJQ5lj3Jd-79" value="Wijzig order -&amp;gt; succesvolle verkoop" style="edgeLabel;html=1;align=center;verticalAlign=middle;resizable=0;points=[];" vertex="1" connectable="0" parent="wvjnYvqD2vjcJQ5lj3Jd-78">
          <mxGeometry x="-0.0538" y="-3" relative="1" as="geometry">
            <mxPoint x="5" y="-13" as="offset" />
          </mxGeometry>
        </mxCell>
        <mxCell id="8" value="Overhandig deze aan de klant" style="whiteSpace=wrap;strokeWidth=2;fontColor=default;" parent="1" vertex="1">
          <mxGeometry x="14" y="802" width="204" height="49" as="geometry" />
        </mxCell>
        <mxCell id="9" value="Snij een plakje kaas" style="rounded=1;arcSize=40;strokeWidth=2;fontColor=default;" parent="1" vertex="1">
          <mxGeometry x="123.5" y="170" width="120" height="49" as="geometry" />
        </mxCell>
        <mxCell id="10" value="Snij de salade en tomaat" style="rounded=1;arcSize=40;strokeWidth=2;fontColor=default;" parent="1" vertex="1">
          <mxGeometry x="230" y="370" width="213" height="49" as="geometry" />
        </mxCell>
        <mxCell id="11" value="Voeg de sauzen toe" style="rounded=1;arcSize=40;strokeWidth=2;fontColor=default;" parent="1" vertex="1">
          <mxGeometry x="42" y="504" width="147" height="49" as="geometry" />
        </mxCell>
        <mxCell id="12" value="" style="curved=1;startArrow=none;endArrow=block;exitX=0.5;exitY=1;entryX=0.5;entryY=0;fontColor=default;" parent="1" source="2" target="3" edge="1">
          <mxGeometry relative="1" as="geometry">
            <Array as="points" />
          </mxGeometry>
        </mxCell>
        <mxCell id="13" value="" style="curved=1;startArrow=none;endArrow=block;exitX=0.01;exitY=1.01;entryX=0.28;entryY=-0.01;fontColor=default;" parent="1" source="3" target="4" edge="1">
          <mxGeometry relative="1" as="geometry">
            <Array as="points">
              <mxPoint x="14" y="181" />
              <mxPoint x="14" y="281" />
            </Array>
          </mxGeometry>
        </mxCell>
        <mxCell id="14" value="" style="curved=1;startArrow=none;endArrow=block;exitX=0.5;exitY=1;entryX=0.5;entryY=0;fontColor=default;" parent="1" source="4" target="5" edge="1">
          <mxGeometry relative="1" as="geometry">
            <Array as="points" />
          </mxGeometry>
        </mxCell>
        <mxCell id="15" value="" style="curved=1;startArrow=none;endArrow=block;exitX=0.24;exitY=1;entryX=0.14;entryY=0.01;fontColor=default;" parent="1" source="5" target="6" edge="1">
          <mxGeometry relative="1" as="geometry">
            <Array as="points">
              <mxPoint x="7" y="479" />
              <mxPoint x="7" y="578" />
            </Array>
          </mxGeometry>
        </mxCell>
        <mxCell id="16" value="" style="curved=1;startArrow=none;endArrow=block;exitX=0.5;exitY=1.01;entryX=0.5;entryY=-0.01;fontColor=default;" parent="1" source="6" target="7" edge="1">
          <mxGeometry relative="1" as="geometry">
            <Array as="points" />
          </mxGeometry>
        </mxCell>
        <mxCell id="17" value="" style="curved=1;startArrow=none;endArrow=block;exitX=0.5;exitY=1;entryX=0.5;entryY=0;fontColor=default;" parent="1" source="7" target="8" edge="1">
          <mxGeometry relative="1" as="geometry">
            <Array as="points" />
          </mxGeometry>
        </mxCell>
        <mxCell id="18" value="" style="curved=1;startArrow=none;endArrow=block;exitX=0.5;exitY=1.01;entryX=0.5;entryY=0.01;fontColor=default;" parent="1" source="3" target="9" edge="1">
          <mxGeometry relative="1" as="geometry">
            <Array as="points" />
          </mxGeometry>
        </mxCell>
        <mxCell id="19" value="" style="curved=1;startArrow=none;endArrow=block;exitX=0.5;exitY=1.01;fontColor=default;" parent="1" source="9" target="wvjnYvqD2vjcJQ5lj3Jd-25" edge="1">
          <mxGeometry relative="1" as="geometry">
            <Array as="points">
              <mxPoint x="184" y="281" />
            </Array>
          </mxGeometry>
        </mxCell>
        <mxCell id="20" value="" style="curved=1;startArrow=none;endArrow=block;exitX=0.97;exitY=1.01;entryX=0.5;entryY=0;fontColor=default;" parent="1" source="3" target="10" edge="1">
          <mxGeometry relative="1" as="geometry">
            <Array as="points">
              <mxPoint x="346" y="181" />
            </Array>
          </mxGeometry>
        </mxCell>
        <mxCell id="21" value="" style="curved=1;startArrow=none;endArrow=block;exitX=0.5;exitY=1.01;entryX=1;entryY=0.18;fontColor=default;" parent="1" source="10" target="6" edge="1">
          <mxGeometry relative="1" as="geometry">
            <Array as="points">
              <mxPoint x="346" y="578" />
            </Array>
          </mxGeometry>
        </mxCell>
        <mxCell id="22" value="" style="curved=1;startArrow=none;endArrow=block;exitX=0.75;exitY=1;entryX=0.5;entryY=0;fontColor=default;" parent="1" source="5" target="11" edge="1">
          <mxGeometry relative="1" as="geometry">
            <Array as="points">
              <mxPoint x="116" y="479" />
            </Array>
          </mxGeometry>
        </mxCell>
        <mxCell id="23" value="" style="curved=1;startArrow=none;endArrow=block;exitX=0.35;exitY=1.01;entryX=0.35;entryY=0.01;fontColor=default;" parent="1" source="11" target="6" edge="1">
          <mxGeometry relative="1" as="geometry">
            <Array as="points">
              <mxPoint x="72" y="578" />
            </Array>
          </mxGeometry>
        </mxCell>
        <mxCell id="24" value="" style="curved=1;startArrow=none;endArrow=block;exitX=0.86;exitY=1.01;entryX=0.85;entryY=0.01;fontColor=default;" parent="1" source="11" target="6" edge="1">
          <mxGeometry relative="1" as="geometry">
            <Array as="points">
              <mxPoint x="221" y="578" />
            </Array>
          </mxGeometry>
        </mxCell>
        <mxCell id="wvjnYvqD2vjcJQ5lj3Jd-28" style="edgeStyle=orthogonalEdgeStyle;rounded=0;orthogonalLoop=1;jettySize=auto;html=1;" edge="1" parent="1" source="wvjnYvqD2vjcJQ5lj3Jd-25">
          <mxGeometry relative="1" as="geometry">
            <mxPoint x="60" y="380" as="targetPoint" />
            <Array as="points">
              <mxPoint x="200" y="380" />
              <mxPoint x="61" y="380" />
            </Array>
          </mxGeometry>
        </mxCell>
        <mxCell id="wvjnYvqD2vjcJQ5lj3Jd-25" value="Smelt deze op de burger" style="rounded=1;arcSize=40;strokeWidth=2;fontColor=default;" vertex="1" parent="1">
          <mxGeometry x="120" y="240" width="160" height="49" as="geometry" />
        </mxCell>
        <mxCell id="wvjnYvqD2vjcJQ5lj3Jd-31" value="" style="edgeStyle=none;orthogonalLoop=1;jettySize=auto;html=1;rounded=0;endArrow=none;endFill=0;dashed=1;dashPattern=1 4;strokeWidth=2;" edge="1" parent="1">
          <mxGeometry width="80" relative="1" as="geometry">
            <mxPoint x="310" y="-90" as="sourcePoint" />
            <mxPoint x="410" y="-150" as="targetPoint" />
            <Array as="points" />
          </mxGeometry>
        </mxCell>
        <mxCell id="wvjnYvqD2vjcJQ5lj3Jd-33" value="" style="edgeStyle=none;orthogonalLoop=1;jettySize=auto;html=1;rounded=0;endArrow=none;endFill=0;dashed=1;dashPattern=1 4;strokeWidth=2;" edge="1" parent="1">
          <mxGeometry width="80" relative="1" as="geometry">
            <mxPoint x="314" y="40" as="sourcePoint" />
            <mxPoint x="410" y="100" as="targetPoint" />
            <Array as="points" />
          </mxGeometry>
        </mxCell>
        <mxCell id="wvjnYvqD2vjcJQ5lj3Jd-35" value="" style="rounded=0;whiteSpace=wrap;html=1;" vertex="1" parent="1">
          <mxGeometry x="410" y="-330" width="330" height="430" as="geometry" />
        </mxCell>
        <mxCell id="wvjnYvqD2vjcJQ5lj3Jd-39" value="" style="edgeStyle=orthogonalEdgeStyle;rounded=0;orthogonalLoop=1;jettySize=auto;html=1;" edge="1" parent="1" source="wvjnYvqD2vjcJQ5lj3Jd-37" target="wvjnYvqD2vjcJQ5lj3Jd-38">
          <mxGeometry relative="1" as="geometry" />
        </mxCell>
        <mxCell id="wvjnYvqD2vjcJQ5lj3Jd-37" value="Ontvang het order" style="whiteSpace=wrap;strokeWidth=2;fontColor=default;" vertex="1" parent="1">
          <mxGeometry x="500" y="-302" width="162" height="49" as="geometry" />
        </mxCell>
        <mxCell id="wvjnYvqD2vjcJQ5lj3Jd-41" value="" style="edgeStyle=orthogonalEdgeStyle;rounded=0;orthogonalLoop=1;jettySize=auto;html=1;" edge="1" parent="1" source="wvjnYvqD2vjcJQ5lj3Jd-38" target="wvjnYvqD2vjcJQ5lj3Jd-40">
          <mxGeometry relative="1" as="geometry" />
        </mxCell>
        <mxCell id="wvjnYvqD2vjcJQ5lj3Jd-38" value="Check dat alle ingredienten aanwezig zijn" style="rounded=1;whiteSpace=wrap;html=1;strokeWidth=2;" vertex="1" parent="1">
          <mxGeometry x="521" y="-220" width="120" height="60" as="geometry" />
        </mxCell>
        <mxCell id="wvjnYvqD2vjcJQ5lj3Jd-43" value="" style="edgeStyle=orthogonalEdgeStyle;rounded=0;orthogonalLoop=1;jettySize=auto;html=1;" edge="1" parent="1" source="wvjnYvqD2vjcJQ5lj3Jd-40" target="wvjnYvqD2vjcJQ5lj3Jd-42">
          <mxGeometry relative="1" as="geometry" />
        </mxCell>
        <mxCell id="wvjnYvqD2vjcJQ5lj3Jd-40" value="Reken de totaalprijs uit" style="whiteSpace=wrap;html=1;rounded=1;strokeWidth=2;" vertex="1" parent="1">
          <mxGeometry x="521" y="-131" width="120" height="60" as="geometry" />
        </mxCell>
        <mxCell id="wvjnYvqD2vjcJQ5lj3Jd-45" value="" style="edgeStyle=orthogonalEdgeStyle;rounded=0;orthogonalLoop=1;jettySize=auto;html=1;" edge="1" parent="1" source="wvjnYvqD2vjcJQ5lj3Jd-42" target="wvjnYvqD2vjcJQ5lj3Jd-44">
          <mxGeometry relative="1" as="geometry" />
        </mxCell>
        <mxCell id="wvjnYvqD2vjcJQ5lj3Jd-42" value="Ontvang betaling" style="whiteSpace=wrap;html=1;rounded=1;strokeWidth=2;" vertex="1" parent="1">
          <mxGeometry x="521" y="-49" width="120" height="60" as="geometry" />
        </mxCell>
        <mxCell id="wvjnYvqD2vjcJQ5lj3Jd-44" value="Voer het order door" style="whiteSpace=wrap;html=1;rounded=1;strokeWidth=2;" vertex="1" parent="1">
          <mxGeometry x="521" y="30" width="120" height="60" as="geometry" />
        </mxCell>
        <mxCell id="wvjnYvqD2vjcJQ5lj3Jd-46" value="" style="rounded=0;whiteSpace=wrap;html=1;" vertex="1" parent="1">
          <mxGeometry x="480" y="175" width="390" height="545" as="geometry" />
        </mxCell>
        <mxCell id="wvjnYvqD2vjcJQ5lj3Jd-47" value="" style="endArrow=none;dashed=1;html=1;dashPattern=1 3;strokeWidth=2;rounded=0;exitX=1;exitY=0;exitDx=0;exitDy=0;entryX=0;entryY=0;entryDx=0;entryDy=0;" edge="1" parent="1" source="5" target="wvjnYvqD2vjcJQ5lj3Jd-46">
          <mxGeometry width="50" height="50" relative="1" as="geometry">
            <mxPoint x="390" y="640" as="sourcePoint" />
            <mxPoint x="440" y="590" as="targetPoint" />
          </mxGeometry>
        </mxCell>
        <mxCell id="wvjnYvqD2vjcJQ5lj3Jd-48" value="" style="endArrow=none;dashed=1;html=1;dashPattern=1 3;strokeWidth=2;rounded=0;exitX=1;exitY=1;exitDx=0;exitDy=0;entryX=0;entryY=1;entryDx=0;entryDy=0;" edge="1" parent="1" source="5" target="wvjnYvqD2vjcJQ5lj3Jd-46">
          <mxGeometry width="50" height="50" relative="1" as="geometry">
            <mxPoint x="310" y="890" as="sourcePoint" />
            <mxPoint x="360" y="840" as="targetPoint" />
          </mxGeometry>
        </mxCell>
        <mxCell id="wvjnYvqD2vjcJQ5lj3Jd-54" value="" style="edgeStyle=orthogonalEdgeStyle;rounded=0;orthogonalLoop=1;jettySize=auto;html=1;" edge="1" parent="1" source="wvjnYvqD2vjcJQ5lj3Jd-49" target="wvjnYvqD2vjcJQ5lj3Jd-53">
          <mxGeometry relative="1" as="geometry" />
        </mxCell>
        <mxCell id="wvjnYvqD2vjcJQ5lj3Jd-49" value="Warm de grill op" style="rounded=1;arcSize=40;strokeWidth=2;fontColor=default;" vertex="1" parent="1">
          <mxGeometry x="590" y="192" width="184" height="49" as="geometry" />
        </mxCell>
        <mxCell id="wvjnYvqD2vjcJQ5lj3Jd-52" value="&lt;span style=&quot;color: rgb(0, 0, 0); font-family: Helvetica; font-size: 12px; font-style: normal; font-variant-ligatures: normal; font-variant-caps: normal; font-weight: 400; letter-spacing: normal; orphans: 2; text-align: center; text-indent: 0px; text-transform: none; widows: 2; word-spacing: 0px; -webkit-text-stroke-width: 0px; white-space: nowrap; background-color: rgb(251, 251, 251); text-decoration-thickness: initial; text-decoration-style: initial; text-decoration-color: initial; display: inline !important; float: none;&quot;&gt;Rooster de broodjes&lt;/span&gt;" style="text;whiteSpace=wrap;html=1;" vertex="1" parent="1">
          <mxGeometry x="590" y="150" width="160" height="40" as="geometry" />
        </mxCell>
        <mxCell id="wvjnYvqD2vjcJQ5lj3Jd-56" value="" style="edgeStyle=orthogonalEdgeStyle;rounded=0;orthogonalLoop=1;jettySize=auto;html=1;" edge="1" parent="1" source="wvjnYvqD2vjcJQ5lj3Jd-53" target="wvjnYvqD2vjcJQ5lj3Jd-55">
          <mxGeometry relative="1" as="geometry" />
        </mxCell>
        <mxCell id="wvjnYvqD2vjcJQ5lj3Jd-53" value="Snij het broodje door midden" style="whiteSpace=wrap;html=1;rounded=1;arcSize=40;strokeWidth=2;" vertex="1" parent="1">
          <mxGeometry x="568" y="263.5" width="228" height="60" as="geometry" />
        </mxCell>
        <mxCell id="wvjnYvqD2vjcJQ5lj3Jd-58" value="" style="edgeStyle=orthogonalEdgeStyle;rounded=0;orthogonalLoop=1;jettySize=auto;html=1;" edge="1" parent="1" source="wvjnYvqD2vjcJQ5lj3Jd-55" target="wvjnYvqD2vjcJQ5lj3Jd-57">
          <mxGeometry relative="1" as="geometry" />
        </mxCell>
        <mxCell id="wvjnYvqD2vjcJQ5lj3Jd-55" value="Vet de grill in" style="whiteSpace=wrap;html=1;rounded=1;arcSize=40;strokeWidth=2;" vertex="1" parent="1">
          <mxGeometry x="622" y="344" width="120" height="60" as="geometry" />
        </mxCell>
        <mxCell id="wvjnYvqD2vjcJQ5lj3Jd-57" value="Rooster het broodje" style="whiteSpace=wrap;html=1;rounded=1;arcSize=40;strokeWidth=2;" vertex="1" parent="1">
          <mxGeometry x="588" y="430" width="188" height="60" as="geometry" />
        </mxCell>
        <mxCell id="wvjnYvqD2vjcJQ5lj3Jd-60" style="edgeStyle=orthogonalEdgeStyle;rounded=0;orthogonalLoop=1;jettySize=auto;html=1;" edge="1" parent="1" source="wvjnYvqD2vjcJQ5lj3Jd-59" target="wvjnYvqD2vjcJQ5lj3Jd-57">
          <mxGeometry relative="1" as="geometry">
            <mxPoint x="900" y="450" as="targetPoint" />
            <Array as="points">
              <mxPoint x="810" y="535" />
              <mxPoint x="810" y="536" />
              <mxPoint x="830" y="536" />
              <mxPoint x="830" y="450" />
            </Array>
          </mxGeometry>
        </mxCell>
        <mxCell id="wvjnYvqD2vjcJQ5lj3Jd-61" value="Nee" style="edgeLabel;html=1;align=center;verticalAlign=middle;resizable=0;points=[];" vertex="1" connectable="0" parent="wvjnYvqD2vjcJQ5lj3Jd-60">
          <mxGeometry x="0.3369" y="-1" relative="1" as="geometry">
            <mxPoint as="offset" />
          </mxGeometry>
        </mxCell>
        <mxCell id="wvjnYvqD2vjcJQ5lj3Jd-66" value="" style="edgeStyle=orthogonalEdgeStyle;rounded=0;orthogonalLoop=1;jettySize=auto;html=1;" edge="1" parent="1" source="wvjnYvqD2vjcJQ5lj3Jd-59" target="wvjnYvqD2vjcJQ5lj3Jd-65">
          <mxGeometry relative="1" as="geometry" />
        </mxCell>
        <mxCell id="wvjnYvqD2vjcJQ5lj3Jd-68" value="Ja" style="edgeLabel;html=1;align=center;verticalAlign=middle;resizable=0;points=[];" vertex="1" connectable="0" parent="wvjnYvqD2vjcJQ5lj3Jd-66">
          <mxGeometry x="-0.4349" y="1" relative="1" as="geometry">
            <mxPoint as="offset" />
          </mxGeometry>
        </mxCell>
        <mxCell id="wvjnYvqD2vjcJQ5lj3Jd-59" value="Is het voldoende geroosterd?" style="rounded=0;whiteSpace=wrap;html=1;" vertex="1" parent="1">
          <mxGeometry x="590" y="525" width="192" height="60" as="geometry" />
        </mxCell>
        <mxCell id="wvjnYvqD2vjcJQ5lj3Jd-65" value="Klaar" style="whiteSpace=wrap;html=1;rounded=0;" vertex="1" parent="1">
          <mxGeometry x="626" y="652" width="120" height="60" as="geometry" />
        </mxCell>
        <mxCell id="wvjnYvqD2vjcJQ5lj3Jd-70" value="&lt;span style=&quot;color: rgb(0, 0, 0); font-family: Helvetica; font-style: normal; font-variant-ligatures: normal; font-variant-caps: normal; font-weight: 400; letter-spacing: normal; orphans: 2; text-align: center; text-indent: 0px; text-transform: none; widows: 2; word-spacing: 0px; -webkit-text-stroke-width: 0px; white-space: normal; background-color: rgb(251, 251, 251); text-decoration-thickness: initial; text-decoration-style: initial; text-decoration-color: initial; float: none; display: inline !important;&quot;&gt;&lt;font style=&quot;font-size: 19px;&quot;&gt;Informatieprocess&lt;/font&gt;&lt;/span&gt;" style="text;whiteSpace=wrap;html=1;" vertex="1" parent="1">
          <mxGeometry x="-400" y="-140" width="140" height="40" as="geometry" />
        </mxCell>
        <mxCell id="wvjnYvqD2vjcJQ5lj3Jd-71" value="" style="shape=datastore;whiteSpace=wrap;html=1;" vertex="1" parent="1">
          <mxGeometry x="-310" y="-53" width="60" height="60" as="geometry" />
        </mxCell>
        <mxCell id="wvjnYvqD2vjcJQ5lj3Jd-72" style="edgeStyle=orthogonalEdgeStyle;rounded=0;orthogonalLoop=1;jettySize=auto;html=1;entryX=0.746;entryY=0.582;entryDx=0;entryDy=0;entryPerimeter=0;" edge="1" parent="1" source="wvjnYvqD2vjcJQ5lj3Jd-30" target="wvjnYvqD2vjcJQ5lj3Jd-71">
          <mxGeometry relative="1" as="geometry" />
        </mxCell>
        <mxCell id="wvjnYvqD2vjcJQ5lj3Jd-73" value="Registreer het order als geplaatst" style="edgeLabel;html=1;align=center;verticalAlign=middle;resizable=0;points=[];" vertex="1" connectable="0" parent="wvjnYvqD2vjcJQ5lj3Jd-72">
          <mxGeometry x="0.1685" y="-5" relative="1" as="geometry">
            <mxPoint x="-2" as="offset" />
          </mxGeometry>
        </mxCell>
        <mxCell id="wvjnYvqD2vjcJQ5lj3Jd-74" value="" style="shape=datastore;whiteSpace=wrap;html=1;" vertex="1" parent="1">
          <mxGeometry x="-310" y="93" width="60" height="60" as="geometry" />
        </mxCell>
        <mxCell id="wvjnYvqD2vjcJQ5lj3Jd-75" style="edgeStyle=orthogonalEdgeStyle;rounded=0;orthogonalLoop=1;jettySize=auto;html=1;entryX=0.798;entryY=0.635;entryDx=0;entryDy=0;entryPerimeter=0;" edge="1" parent="1" source="3" target="wvjnYvqD2vjcJQ5lj3Jd-74">
          <mxGeometry relative="1" as="geometry" />
        </mxCell>
        <mxCell id="wvjnYvqD2vjcJQ5lj3Jd-76" value="Wijzig totale voorraad aan ingredienten" style="edgeLabel;html=1;align=center;verticalAlign=middle;resizable=0;points=[];" vertex="1" connectable="0" parent="wvjnYvqD2vjcJQ5lj3Jd-75">
          <mxGeometry x="0.3563" y="-3" relative="1" as="geometry">
            <mxPoint x="59" y="-5" as="offset" />
          </mxGeometry>
        </mxCell>
        <mxCell id="wvjnYvqD2vjcJQ5lj3Jd-77" value="" style="shape=datastore;whiteSpace=wrap;html=1;" vertex="1" parent="1">
          <mxGeometry x="-311" y="789" width="60" height="60" as="geometry" />
        </mxCell>
        <mxCell id="wvjnYvqD2vjcJQ5lj3Jd-80" value="" style="shape=datastore;whiteSpace=wrap;html=1;" vertex="1" parent="1">
          <mxGeometry x="-311" y="702" width="60" height="60" as="geometry" />
        </mxCell>
      </root>
    </mxGraphModel>
  </diagram>
</mxfile>
